<?xml version="1.0" encoding="UTF-8" standalone="no"?>
<svg
   xmlns:dc="http://purl.org/dc/elements/1.1/"
   xmlns:cc="http://creativecommons.org/ns#"
   xmlns:rdf="http://www.w3.org/1999/02/22-rdf-syntax-ns#"
   xmlns:svg="http://www.w3.org/2000/svg"
   xmlns="http://www.w3.org/2000/svg"
   id="svg8"
   version="1.1"
   viewBox="0 0 131.95485 86.293655"
   height="86.293655mm"
   width="131.95485mm">
  <defs
     id="defs2" />
  <metadata
     id="metadata5">
    <rdf:RDF>
      <cc:Work
         rdf:about="">
        <dc:format>image/svg+xml</dc:format>
        <dc:type
           rdf:resource="http://purl.org/dc/dcmitype/StillImage" />
        <dc:title></dc:title>
      </cc:Work>
    </rdf:RDF>
  </metadata>
  <g
     transform="translate(-23.152771,-40.343722)"
     id="layer1">
    <path
       id="path826"
       d="m 119.54582,126.29968 c -2.61167,-0.5621 -3.60489,-1.64489 -3.24899,-3.54199 0.0959,-0.5114 0.49849,-1.29251 0.89457,-1.73579 l 0.72013,-0.80596 1.40722,0.60537 c 1.62092,0.6973 5.5258,1.00653 7.92787,0.62782 1.44036,-0.22709 1.4174,-0.23401 -2.24896,-0.67823 -4.53256,-0.54917 -5.57385,-0.83042 -6.1113,-1.65067 -0.87697,-1.33844 0.21786,-3.14617 1.90545,-3.14617 0.92384,0 0.92659,-0.004 0.76058,-0.9862 -0.20565,-1.2172 0.0764,-1.43304 3.44527,-2.63648 1.97072,-0.70399 2.62073,-1.08758 3.77032,-2.22497 l 1.38906,-1.37432 v 1.24317 c 0,1.91543 0.43734,2.90884 1.28266,2.91353 1.20777,0.007 2.02463,0.5839 2.02463,1.43057 0,1.01779 -0.90096,1.65068 -3.04427,2.13846 l -1.71823,0.39104 2.24896,-0.0834 c 1.4666,-0.0544 2.54929,-0.24061 3.1123,-0.53535 0.85047,-0.44524 0.87363,-0.44171 1.55253,0.2372 0.61385,0.61385 0.67612,0.84682 0.5696,2.13122 -0.11087,1.337 -0.0745,1.45333 0.49877,1.59723 1.01784,0.25546 1.93972,1.57715 1.93972,2.78097 0,0.58048 -0.12305,1.28533 -0.27343,1.56633 -0.39629,0.74048 -1.98441,1.45904 -3.98158,1.80151 -2.30839,0.39584 -12.89753,0.34946 -14.82288,-0.0649 z m -51.445604,-5.84214 c -0.77781,-0.77781 -0.86638,-2.23723 -0.23198,-3.82274 0.40758,-1.01866 1.31992,-1.68614 2.62526,-1.9207 0.68769,-0.12357 0.8019,-1.37718 1.04468,-11.4665 0.12776,-5.309283 0.31767,-8.365703 0.61647,-9.921873 0.26642,-1.38748 0.43606,-3.66786 0.44285,-5.95313 0.009,-3.09728 -0.0887,-4.05096 -0.59743,-5.820831 -1.86509,-6.488295 -5.76538,-10.813769 -11.58729,-12.850447 -4.8006,-1.679398 -12.37771,-2.425216 -18.80215,-1.850708 -2.15901,0.19307 -5.61759,0.405959 -7.68575,0.473086 -4.42414,0.143597 -5.714487,-0.160015 -7.551209,-1.776762 -1.996898,-1.757741 -3.765749,-6.259064 -3.064432,-7.798286 0.342584,-0.751891 0.590955,-0.855527 2.575393,-1.074616 2.793563,-0.30842 6.199548,-2.641111 8.102658,-5.54935 2.30371,-3.520409 5.44389,-5.285019 10.63392,-5.975683 3.3489,-0.445656 4.99046,-0.247659 7.25142,0.874632 l 1.92032,0.953202 3.58777,-1.791025 c 4.09951,-2.046482 5.29392,-2.470833 8.61486,-3.060704 1.30969,-0.232629 3.12825,-0.665032 4.04124,-0.960895 4.4239,-1.4336 7.39598,-1.076584 14.74418,1.77112 1.98652,0.769854 4.42223,1.425855 7.67291,2.06652 9.161744,1.805654 12.391214,3.075267 15.433194,6.067316 4.03657,3.970304 8.88517,10.454438 11.51729,15.402295 1.91804,3.605538 3.01415,6.637557 3.9832,11.018135 1.40693,6.359971 2.7351,9.372241 5.27865,11.971831 2.65562,2.71413 7.09837,4.0842 12.07413,3.72348 4.24233,-0.30754 7.22596,-1.21609 10.88617,-3.31494 1.3037,-0.74757 2.46192,-1.2445 2.69349,-1.15564 0.22346,0.0858 0.52991,0.51053 0.681,0.94397 0.37383,1.07235 -0.26546,2.63021 -1.45016,3.53382 -2.31729,1.76748 -7.46288,3.51568 -12.03558,4.08905 -2.31414,0.29017 -4.01376,0.1312 -8.40771,-0.78636 -4.13834,-0.86419 -6.9707,-1.13005 -8.28445,-0.77761 -0.63161,0.16944 -2.93432,1.06135 -5.11713,1.98202 -4.66815,1.96893 -6.55897,2.499973 -9.80123,2.752683 -4.95968,0.38657 -6.00862,1.90112 -5.28339,7.62863 0.2586,2.04231 0.0182,2.37466 -2.64247,3.65348 -1.01864,0.4896 -3.024144,1.81654 -4.456664,2.94876 -5.47884,4.33032 -6.36119,4.7865 -10.36001,5.35614 -2.51896,0.35884 -6.06603,0.341 -7.32715,-0.0368 -1.38235,-0.41416 -2.33131,-1.56381 -2.32608,-2.818 0.005,-1.18569 -0.0455,-1.11335 2.30058,-3.29715 2.25983,-2.10349 2.87788,-2.21784 5.22311,-0.96635 1.83191,0.97756 2.40701,0.90633 4.62139,-0.57238 2.05773,-1.3741 3.19691,-3.12552 3.38546,-5.20495 0.11689,-1.28903 8e-4,-1.92016 -0.71806,-3.90713 -2.41928,-6.686133 -2.41506,-6.670103 -2.42895,-9.221893 -0.009,-1.69485 0.15687,-3.05502 0.54646,-4.47508 0.30784,-1.12208 0.55971,-2.29611 0.55971,-2.60896 0,-0.70894 -2.57873,-4.17245 -3.80028,-5.10416 -2.22747,-1.698981 -4.6169,-1.197811 -5.88203,1.23373 -1.10012,2.11439 -1.23804,3.48501 -1.40576,13.97014 l -0.16295,10.186463 -1.08011,2.64584 c -0.83319,2.041 -1.11743,3.13896 -1.2434,4.80304 -0.0898,1.18646 -0.30258,2.71036 -0.47281,3.38642 -0.53818,2.13729 -2.38649,3.03584 -6.27146,3.04886 -1.70131,0.006 -2.00728,-0.0706 -2.57969,-0.64297 z"
       style="fill:#000000;stroke-width:0.26458332" />
  </g>
</svg>
