<?xml version="1.0" encoding="UTF-8" standalone="no"?>
<svg
   xmlns:dc="http://purl.org/dc/elements/1.1/"
   xmlns:cc="http://creativecommons.org/ns#"
   xmlns:rdf="http://www.w3.org/1999/02/22-rdf-syntax-ns#"
   xmlns:svg="http://www.w3.org/2000/svg"
   xmlns="http://www.w3.org/2000/svg"
   id="svg878"
   version="1.1"
   viewBox="0 0 115.46469 115.10094"
   height="115.10094mm"
   width="115.46469mm">
  <defs
     id="defs872" />
  <metadata
     id="metadata875">
    <rdf:RDF>
      <cc:Work
         rdf:about="">
        <dc:format>image/svg+xml</dc:format>
        <dc:type
           rdf:resource="http://purl.org/dc/dcmitype/StillImage" />
        <dc:title></dc:title>
      </cc:Work>
    </rdf:RDF>
  </metadata>
  <g
     transform="translate(-26.590627,-19.94695)"
     id="layer1">
    <path
       id="path1434"
       d="m 84.350686,134.97765 c -1.74488,-0.23037 -3.07675,-1.05071 -3.6429,-2.24378 -0.55827,-1.17648 -0.38822,-1.99294 0.8318,-3.99366 2.37044,-3.8873 2.47057,-4.46789 1.91506,-11.10453 -0.26795,-3.20131 -0.24525,-3.62545 0.36035,-6.73166 0.90595,-4.64677 0.57211,-6.93598 -1.28187,-8.78996 -0.95045,-0.95045 -1.62886,-1.09622 -3.9128,-0.84074 -3.582255,0.40072 -5.09564,0.11775 -8.76286,-1.638455 -2.573594,-1.23248 -3.022796,-1.18137 -4.444068,0.505675 -2.668665,3.16771 -5.724131,8.37935 -8.323207,14.19671 -1.073635,2.40305 -2.049794,4.49299 -2.169248,4.64431 -0.119451,0.15132 -0.273899,1.10952 -0.343217,2.12932 -0.221695,3.26162 -1.26787,4.45682 -3.850315,4.39877 -2.002192,-0.045 -3.671842,-0.8936 -4.357392,-2.21462 -0.663204,-1.27796 -0.503357,-1.93963 1.139884,-4.71837 0.72543,-1.22671 1.388422,-2.49828 1.473317,-2.8257 0.0849,-0.32742 0.308168,-0.59531 0.49616,-0.59531 0.195106,0 0.479827,-0.59617 0.663397,-1.38907 0.234823,-1.01425 0.624578,-1.71032 1.444459,-2.57968 1.405487,-1.49031 2.450906,-3.04668 3.653411,-5.43902 1.819363,-3.61956 5.715244,-13.465165 5.437884,-13.742525 -0.06958,-0.0696 -1.606339,0.1829 -3.415017,0.56106 -2.961809,0.61924 -3.590795,0.66688 -6.33122,0.47942 -4.452104,-0.30453 -4.651532,-0.28992 -7.540625,0.55225 -2.124261,0.61922 -3.167406,0.77289 -5.291667,0.77952 -3.385978,0.0105 -4.606147,-0.50801 -7.017768,-2.98258 -0.949629,-0.97441 -2.086122,-2.06932 -2.52554,-2.43312 -1.50573,-1.24662 -1.966067,-2.07962 -1.966067,-3.55767 0,-2.08155 0.676783,-2.60726 4.101042,-3.18559 0.805639,-0.13606 1.374201,-0.50529 2.38125,-1.546387 1.264177,-1.30692 1.638036,-2.02264 2.925273,-5.600209 0.279214,-0.776007 1.002822,-1.879481 1.751785,-2.671397 0.701837,-0.74209 1.276067,-1.468123 1.276067,-1.613411 0,-0.522451 -0.984397,-1.13992 -1.817312,-1.13992 -1.042906,0 -2.556461,0.747485 -3.726285,1.840264 -0.483466,0.451625 -0.943365,0.756801 -1.021996,0.678172 -0.254889,-0.254891 0.443551,-3.976624 0.982018,-5.232815 0.685748,-1.599785 2.282835,-3.170333 3.636247,-3.575826 1.524472,-0.456742 3.853509,-0.402918 5.18312,0.119788 0.621408,0.24429 1.887817,0.958665 2.814241,1.5875 2.025529,1.374878 2.834884,1.435521 4.665592,0.349583 2.168813,-1.286494 2.777376,-1.141534 5.133874,1.222883 2.769474,2.778787 3.436488,3.04831 6.764677,2.733432 3.585188,-0.339193 5.392155,-0.832638 8.342074,-2.278052 1.978395,-0.969383 2.911052,-1.631214 4.380622,-3.108576 1.062953,-1.068586 2.13274,-2.446743 2.483911,-3.199895 0.606337,-1.300417 0.608991,-1.343165 0.155995,-2.513542 -1.414375,-3.654237 -1.515044,-4.085143 -1.421365,-6.084131 0.07677,-1.638191 0.269523,-2.355958 1.101516,-4.101785 l 1.008464,-2.116122 -1.274884,-1.040902 c -0.701185,-0.572498 -2.039461,-1.820736 -2.973946,-2.773863 -4.683476,-4.776916 -5.906566,-9.227233 -3.752712,-13.654568 1.175462,-2.416212 4.380286,-5.60361 7.300423,-7.260732 1.701094,-0.965336 2.374747,-1.198649 3.688168,-1.277361 1.65716,-0.09931 2.80515,0.348768 2.43364,0.949887 -0.0991,0.160345 -0.92096,0.665683 -1.82636,1.122975 -4.764901,2.406618 -7.146241,5.866083 -7.186235,10.439726 -0.01352,1.544855 0.100094,2.049883 0.684842,3.04449 1.491432,2.536805 5.417133,5.709732 8.797823,7.110788 2.18442,0.905288 5.01596,0.928886 7.96364,0.06637 1.60238,-0.46887 2.8238,-0.626813 5.02708,-0.650054 3.16616,-0.0334 4.483654,0.205546 10.980214,1.991402 3.61882,0.994786 4.13666,1.067525 9.12813,1.282184 6.9993,0.301009 7.78894,0.600443 8.71919,3.306353 0.19658,0.57182 0.51784,1.111787 0.71391,1.199922 3.17897,1.429017 3.66781,1.998443 3.1617,3.682926 -0.6263,2.084541 -2.78912,3.424246 -5.54346,3.433773 -1.47525,0.0051 -1.86992,-0.111466 -3.23947,-0.956802 l -1.55956,-0.962612 -2.0522,0.328731 c -2.52725,0.404831 -7.42363,1.795278 -10.25428,2.911949 -4.75531,1.875941 -8.159984,4.557916 -9.640324,7.593997 -1.58645,3.253711 -1.9161,5.783538 -1.82038,13.96978 l 0.0836,7.150967 -0.76083,1.44584 c -2.09497,3.98115 -2.7925,7.04703 -3.07211,13.503115 -0.1385,3.19784 -0.3717,5.49102 -0.67265,6.61458 -0.31764,1.18583 -0.44839,2.58235 -0.42115,4.49792 0.0294,2.06632 -0.13041,3.59162 -0.62364,5.95313 -0.56024,2.68237 -0.66369,3.89341 -0.66671,7.8052 -0.002,2.54662 -0.12751,5.0765 -0.279,5.62196 -0.58066,2.09087 -1.9441,2.88306 -4.40323,2.55838 z M 140.73044,95.947395 c -0.44178,-1.05734 -0.40766,-1.72534 0.0967,-1.89328 0.39305,-0.13087 1.4038,1.9629 1.20176,2.48942 -0.25287,0.65897 -0.89776,0.3629 -1.29847,-0.59614 z m -1.8846,-4.14122 c -1.31738,-1.69203 -1.99597,-4.14105 -1.06392,-3.83973 0.47756,0.15439 2.39572,3.56115 2.19131,3.8919 -0.23368,0.37809 -0.81328,0.35127 -1.12739,-0.0522 z m -4.4375,-6.95777 c -1.07756,-1.49145 -1.30744,-2.24166 -0.74439,-2.42935 0.39371,-0.13123 2.72837,2.80699 2.7286,3.43399 2.6e-4,0.91661 -0.94016,0.44042 -1.98421,-1.00464 z m -4.62303,-5.271947 c -1.37784,-1.39517 -1.42257,-1.48325 -0.97755,-1.92528 0.44466,-0.44167 0.53453,-0.39244 1.93112,1.05788 0.80562,0.83661 1.41517,1.67005 1.35456,1.85208 -0.23661,0.71063 -0.92312,0.41776 -2.30813,-0.98468 z m -4.96812,-4.389252 c -1.31587,-1.009885 -1.85992,-2.100302 -1.04792,-2.100302 0.61799,0 3.36303,2.20114 3.36303,2.696684 0,0.76674 -0.8113,0.557744 -2.31511,-0.596382 z m -5.48063,-3.643524 c -1.92138,-1.01787 -2.34979,-1.511797 -1.57061,-1.810798 0.65584,-0.251669 3.8101,1.460281 3.8101,2.067899 0,0.785593 -0.3463,0.745834 -2.23949,-0.257101 z m -6.29332,-2.879519 c -1.38069,-0.523753 -1.78594,-0.797118 -1.78594,-1.204698 0,-0.447844 0.12945,-0.505618 0.85989,-0.383765 1.62835,0.271648 3.37344,1.186482 3.37344,1.768467 0,0.675003 -0.24003,0.65735 -2.44739,-0.180004 z m -6.41615,-1.931487 c -1.29216,-0.304266 -1.87799,-0.569764 -1.93778,-0.8782 -0.13326,-0.687432 0.46036,-0.745974 2.46527,-0.243128 1.25024,0.313568 1.87662,0.603478 1.93122,0.893826 0.12294,0.65378 -0.4308,0.705017 -2.45871,0.227502 z m -6.48229,-1.026261 c -1.108394,-0.308311 -0.812804,-0.942996 0.48257,-1.036201 1.23128,-0.08859 1.95548,0.287902 1.72235,0.895409 -0.15145,0.394687 -1.07919,0.453927 -2.20492,0.140792 z"
       style="fill:#000000;stroke-width:0.26458335" />
  </g>
</svg>
